<?xml version="1.0" standalone="no"?>
<!DOCTYPE svg PUBLIC "-//W3C//DTD SVG 20010904//EN"
 "http://www.w3.org/TR/2001/REC-SVG-20010904/DTD/svg10.dtd">
<svg version="1.0" xmlns="http://www.w3.org/2000/svg"
 width="180.000000pt" height="228.000000pt" viewBox="0 0 180.000000 228.000000"
 preserveAspectRatio="xMidYMid meet">

<g transform="translate(0.000000,228.000000) scale(0.100000,-0.100000)"
fill="#000000" stroke="none">
<path d="M1126 2091 c-3 -4 1 -17 10 -27 14 -18 14 -17 3 5 -10 21 -9 23 5 18
10 -4 15 -3 11 3 -8 12 -22 13 -29 1z"/>
<path d="M1050 2050 c0 -5 5 -10 11 -10 5 0 7 5 4 10 -3 6 -8 10 -11 10 -2 0
-4 -4 -4 -10z"/>
<path d="M1231 2042 c-1 -7 -5 -11 -10 -8 -5 4 -7 -3 -4 -13 3 -11 11 -17 18
-15 7 3 16 1 20 -5 6 -10 0 -13 -35 -15 -23 -2 -18 -19 7 -21 12 -1 20 2 17 7
-8 13 20 9 36 -4 12 -11 12 -10 1 5 -7 9 -10 17 -5 17 5 0 1 5 -9 11 -10 6
-22 20 -27 32 -5 12 -9 16 -9 9z"/>
<path d="M1260 2030 c0 -6 7 -10 15 -10 8 0 15 2 15 4 0 2 -7 6 -15 10 -8 3
-15 1 -15 -4z"/>
<path d="M975 1970 c-15 -5 -9 -7 21 -6 23 0 40 4 37 9 -5 9 -32 8 -58 -3z"/>
<path d="M1375 1960 c3 -5 8 -10 11 -10 2 0 4 5 4 10 0 6 -5 10 -11 10 -5 0
-7 -4 -4 -10z"/>
<path d="M941 1934 c0 -11 3 -14 6 -6 3 7 2 16 -1 19 -3 4 -6 -2 -5 -13z"/>
<path d="M970 1943 c0 -1 8 -7 18 -12 13 -7 19 -6 19 2 0 7 -9 13 -19 13 -10
0 -18 -1 -18 -3z"/>
<path d="M1416 1931 c-3 -4 1 -16 8 -26 12 -16 13 -16 19 -2 4 10 2 16 -6 14
-7 -1 -11 4 -9 11 2 14 -4 16 -12 3z"/>
<path d="M1014 1909 c-4 -7 -3 -9 4 -5 5 3 13 0 15 -6 4 -9 6 -10 6 -1 1 17
-16 25 -25 12z"/>
<path d="M950 1906 c0 -2 7 -7 16 -10 8 -3 12 -2 9 4 -6 10 -25 14 -25 6z"/>
<path d="M1487 1904 c-4 -4 -7 -12 -7 -18 0 -6 5 -4 10 4 9 13 11 13 21 0 9
-12 10 -12 7 -1 -5 17 -21 25 -31 15z"/>
<path d="M1376 1892 c-3 -5 1 -9 9 -9 8 0 12 4 9 9 -3 4 -7 8 -9 8 -2 0 -6 -4
-9 -8z"/>
<path d="M1054 1866 c1 -8 5 -18 8 -22 4 -3 5 1 4 10 -1 8 -5 18 -8 22 -4 3
-5 -1 -4 -10z"/>
<path d="M1106 1868 c7 -11 32 -10 39 2 3 6 -4 9 -19 8 -13 -1 -22 -6 -20 -10z"/>
<path d="M1138 1853 c-24 -6 -23 -26 2 -48 11 -10 20 -13 20 -7 0 6 -4 13 -10
17 -18 11 1 36 22 29 14 -4 18 -2 14 5 -7 11 -18 12 -48 4z"/>
<path d="M1548 1853 c10 -4 10 -8 1 -19 -9 -11 -9 -14 0 -14 7 0 9 -5 5 -12
-4 -7 -3 -8 4 -4 6 4 8 14 5 23 -5 12 -3 14 8 8 12 -8 12 -6 0 8 -7 9 -19 17
-25 16 -6 0 -6 -3 2 -6z"/>
<path d="M1180 1810 c0 -5 5 -10 10 -10 6 0 10 5 10 10 0 6 -4 10 -10 10 -5 0
-10 -4 -10 -10z"/>
<path d="M1234 1778 c-10 -13 -12 -17 -4 -10 19 16 35 16 21 -1 -8 -10 -7 -14
4 -14 8 0 12 4 9 8 -2 4 0 10 6 14 11 7 4 25 -9 25 -4 0 -16 -10 -27 -22z"/>
<path d="M16 1772 c-7 -12 22 -38 31 -28 4 3 0 14 -9 22 -9 10 -18 12 -22 6z"/>
<path d="M1553 1766 c-4 -7 -14 -15 -22 -17 -10 -4 -10 -8 3 -19 15 -11 17
-11 14 1 -2 8 2 13 7 12 6 -1 11 7 11 18 0 23 -2 24 -13 5z"/>
<path d="M20 1485 c0 -135 2 -245 4 -245 2 0 10 -2 18 -5 11 -4 12 39 10 239
-2 203 -5 245 -17 250 -13 5 -15 -28 -15 -239z"/>
<path d="M85 1720 c-3 -5 -1 -10 4 -10 6 0 11 5 11 10 0 6 -2 10 -4 10 -3 0
-8 -4 -11 -10z"/>
<path d="M1316 1711 c-4 -5 -2 -12 3 -15 5 -4 12 -2 15 3 4 5 2 12 -3 15 -5 4
-12 2 -15 -3z"/>
<path d="M143 1696 c0 -15 22 -15 34 0 4 5 4 6 -1 2 -5 -4 -14 -3 -21 2 -8 7
-12 5 -12 -4z"/>
<path d="M1440 1685 c9 -11 17 -12 31 -4 10 5 19 12 19 15 0 2 -9 0 -20 -6
-14 -7 -20 -7 -20 0 0 5 -5 10 -11 10 -8 0 -8 -4 1 -15z"/>
<path d="M83 1665 c0 -8 4 -12 9 -9 4 3 8 9 8 15 0 5 -4 9 -8 9 -5 0 -9 -7 -9
-15z"/>
<path d="M203 1665 c0 -8 4 -12 9 -9 5 3 6 10 3 15 -9 13 -12 11 -12 -6z"/>
<path d="M1420 1665 c0 -8 4 -15 10 -15 5 0 7 7 4 15 -4 8 -8 15 -10 15 -2 0
-4 -7 -4 -15z"/>
<path d="M263 1628 c-6 -7 -10 -21 -10 -30 0 -23 12 -12 12 10 0 9 6 16 13 14
8 -1 11 2 7 8 -8 13 -10 13 -22 -2z"/>
<path d="M717 1551 l-138 -79 33 -20 c18 -11 207 -117 421 -237 l387 -217 0
-177 0 -176 -282 -155 c-155 -85 -284 -154 -286 -154 -2 1 -125 70 -273 153
-149 83 -274 152 -278 154 -9 2 -281 -146 -281 -154 0 -3 125 -76 278 -164
152 -87 339 -193 415 -237 l138 -79 424 238 424 238 3 336 3 336 -310 173
c-170 96 -356 200 -412 232 -56 32 -107 60 -115 62 -7 3 -75 -30 -151 -73z"/>
<path d="M278 1439 c-2 -72 0 -133 3 -135 4 -2 8 57 8 131 1 74 0 135 -3 135
-3 0 -6 -59 -8 -131z"/>
<path d="M160 1316 c0 -2 8 -10 18 -17 15 -13 16 -12 3 4 -13 16 -21 21 -21
13z"/>
<path d="M204 1298 c-4 -7 -4 -10 1 -6 4 4 15 2 24 -5 14 -11 14 -10 2 6 -16
20 -18 21 -27 5z"/>
<path d="M205 1269 c-4 -6 -4 -13 -1 -16 3 -4 6 -1 6 6 0 7 5 9 12 5 7 -4 8
-3 4 4 -9 15 -13 15 -21 1z"/>
<path d="M76 1228 c3 -5 10 -6 15 -3 13 9 11 12 -6 12 -8 0 -12 -4 -9 -9z"/>
<path d="M139 1223 c-13 -16 -12 -17 4 -4 9 7 17 15 17 17 0 8 -8 3 -21 -13z"/>
<path d="M20 1200 c-12 -7 -12 -12 -2 -22 9 -9 15 -9 24 0 16 16 -2 34 -22 22z"/>
<path d="M60 1189 c0 -5 5 -7 10 -4 6 3 10 8 10 11 0 2 -4 4 -10 4 -5 0 -10
-5 -10 -11z"/>
</g>
</svg>
