<?xml version="1.0" standalone="no"?>
<!DOCTYPE svg PUBLIC "-//W3C//DTD SVG 20010904//EN"
 "http://www.w3.org/TR/2001/REC-SVG-20010904/DTD/svg10.dtd">
<svg version="1.0" xmlns="http://www.w3.org/2000/svg"
 width="978.000000pt" height="228.000000pt" viewBox="0 0 978.000000 228.000000"
 preserveAspectRatio="xMidYMid meet">

<g transform="translate(0.000000,228.000000) scale(0.100000,-0.100000)"
fill="#000000" stroke="none">
<path d="M1062 2054 c-7 -8 -8 -14 -3 -14 10 0 25 19 20 25 -2 1 -10 -3 -17
-11z"/>
<path d="M1231 2042 c-1 -7 -5 -11 -10 -8 -5 4 -7 -4 -3 -16 3 -12 1 -19 -5
-15 -5 3 -9 -3 -8 -15 1 -14 9 -22 23 -23 12 -1 19 2 16 7 -8 13 20 9 36 -4
12 -11 12 -10 1 5 -7 9 -10 17 -5 17 5 0 1 5 -9 11 -10 6 -22 20 -27 32 -5 12
-9 16 -9 9z m27 -47 c-2 -1 -13 -8 -25 -14 -22 -11 -22 -10 -11 14 9 19 14 22
25 13 7 -6 12 -12 11 -13z"/>
<path d="M1260 2030 c0 -5 5 -10 11 -10 5 0 7 5 4 10 -3 6 -8 10 -11 10 -2 0
-4 -4 -4 -10z"/>
<path d="M992 1984 c9 -9 21 -15 27 -13 6 2 -2 10 -17 17 -25 11 -25 11 -10
-4z"/>
<path d="M943 1975 c0 -8 4 -12 9 -9 5 3 6 10 3 15 -9 13 -12 11 -12 -6z"/>
<path d="M1358 1958 c5 -5 16 -8 23 -6 8 3 3 7 -10 11 -17 4 -21 3 -13 -5z"/>
<path d="M1001 1951 c-9 -6 -7 -10 8 -14 12 -3 21 -1 21 3 0 14 -15 19 -29 11z"/>
<path d="M937 1931 c-4 -17 -3 -21 5 -13 5 5 8 16 6 23 -3 8 -7 3 -11 -10z"/>
<path d="M1401 1945 c-1 -14 38 -62 40 -50 0 6 2 18 4 28 3 14 0 16 -10 7 -10
-8 -16 -7 -24 7 -6 10 -10 14 -10 8z"/>
<path d="M890 1936 c0 -2 7 -7 16 -10 8 -3 12 -2 9 4 -6 10 -25 14 -25 6z"/>
<path d="M1026 1893 c-6 -14 -5 -15 5 -6 7 7 10 15 7 18 -3 3 -9 -2 -12 -12z"/>
<path d="M1485 1899 c-4 -6 -5 -12 -2 -15 2 -3 7 2 10 11 7 17 1 20 -8 4z"/>
<path d="M1376 1892 c-3 -4 4 -9 15 -9 23 -2 25 3 4 10 -8 4 -16 3 -19 -1z"/>
<path d="M1115 1870 c-3 -5 3 -10 15 -10 12 0 18 5 15 10 -3 6 -10 10 -15 10
-5 0 -12 -4 -15 -10z"/>
<path d="M1052 1861 c-11 -7 -11 -9 0 -14 9 -3 15 1 15 9 0 8 -1 14 -1 14 -1
0 -7 -4 -14 -9z"/>
<path d="M1165 1850 c3 -5 11 -10 16 -10 6 0 7 5 4 10 -3 6 -11 10 -16 10 -6
0 -7 -4 -4 -10z"/>
<path d="M1544 1851 c4 -6 2 -21 -4 -33 l-11 -23 18 21 c10 11 27 20 37 18 18
-3 19 3 1 6 -5 1 -18 6 -29 12 -13 7 -16 7 -12 -1z"/>
<path d="M1130 1840 c-12 -7 -11 -12 5 -29 21 -24 35 -20 15 4 -11 13 -10 15
6 9 11 -3 15 -2 9 3 -5 4 -12 11 -15 15 -3 4 -12 3 -20 -2z"/>
<path d="M1180 1810 c0 -5 5 -10 10 -10 6 0 10 5 10 10 0 6 -4 10 -10 10 -5 0
-10 -4 -10 -10z"/>
<path d="M1650 1816 c0 -2 7 -9 15 -16 9 -7 15 -8 15 -2 0 5 -7 12 -15 16 -8
3 -15 4 -15 2z"/>
<path d="M1190 1780 c0 -5 5 -10 11 -10 5 0 7 5 4 10 -3 6 -8 10 -11 10 -2 0
-4 -4 -4 -10z"/>
<path d="M16 1772 c-3 -5 1 -9 9 -9 8 0 12 4 9 9 -3 4 -7 8 -9 8 -2 0 -6 -4
-9 -8z"/>
<path d="M1245 1759 c-3 -4 2 -6 10 -5 21 3 28 13 10 13 -9 0 -18 -4 -20 -8z"/>
<path d="M2450 1743 c-43 -22 -60 -38 -77 -73 -48 -93 -17 -205 67 -247 25
-13 82 -34 128 -47 91 -26 122 -47 122 -82 0 -30 -45 -64 -85 -64 -47 0 -114
26 -159 62 l-38 31 -24 -29 c-13 -16 -33 -41 -44 -55 l-20 -27 53 -36 c75 -51
129 -68 222 -69 154 -1 238 67 238 193 0 107 -51 158 -200 201 -52 15 -103 35
-114 45 -23 20 -25 53 -5 80 23 30 118 26 185 -9 29 -15 54 -27 56 -27 5 0 65
96 65 104 0 4 -30 21 -67 39 -58 27 -82 32 -158 35 -83 3 -94 1 -145 -25z"/>
<path d="M4920 1761 c-92 -29 -169 -94 -209 -180 -21 -46 -26 -71 -26 -141 0
-77 3 -92 33 -152 50 -103 131 -161 244 -177 173 -24 322 57 379 208 28 73 23
192 -10 266 -29 66 -107 138 -177 165 -57 21 -182 27 -234 11z m173 -125 c18
-7 50 -33 70 -56 78 -92 71 -217 -17 -298 -96 -89 -232 -62 -294 59 -34 65
-28 161 13 221 53 75 150 107 228 74z"/>
<path d="M60 1750 c0 -7 -3 -10 -7 -7 -3 4 -12 2 -20 -4 -10 -9 -13 -63 -13
-254 0 -209 2 -244 15 -249 14 -5 15 23 13 243 -2 137 0 247 3 245 9 -5 21 27
14 34 -3 3 -5 -1 -5 -8z"/>
<path d="M3150 1435 l0 -325 70 0 70 0 0 325 0 325 -70 0 -70 0 0 -325z"/>
<path d="M3640 1435 l0 -325 70 0 70 0 2 203 3 202 88 -172 87 -173 45 0 45 0
87 173 88 172 3 -202 2 -203 70 0 70 0 0 325 0 325 -98 0 -98 0 -80 -171 c-44
-94 -84 -170 -89 -170 -6 1 -46 78 -89 171 l-79 170 -98 0 -99 0 0 -325z"/>
<path d="M5680 1435 l0 -325 70 0 70 0 2 200 3 200 150 -197 150 -198 73 -3
72 -3 0 326 0 325 -70 0 -70 0 -2 -207 -3 -207 -158 207 -158 207 -64 0 -65 0
0 -325z"/>
<path d="M6620 1435 l0 -325 70 0 70 0 0 200 c0 110 3 200 8 200 4 -1 75 -90
157 -200 l150 -199 73 -1 72 0 0 325 0 325 -70 0 -70 0 0 -206 c0 -113 -4
-203 -8 -200 -5 3 -78 95 -162 206 l-152 200 -69 0 -69 0 0 -325z"/>
<path d="M7570 1435 l0 -325 240 0 240 0 0 65 0 65 -170 0 -171 0 3 68 3 67
143 3 142 3 0 54 0 54 -142 3 -143 3 -3 68 -3 67 166 0 165 0 0 65 0 65 -235
0 -235 0 0 -325z"/>
<path d="M8423 1435 l-140 -325 76 0 76 0 94 218 c51 119 97 221 101 225 4 5
21 -23 36 -62 l29 -71 77 0 77 0 -31 73 c-17 39 -49 115 -72 167 l-42 95 -70
3 -70 3 -141 -326z"/>
<path d="M9220 1560 c0 -225 8 -281 53 -347 48 -71 119 -105 224 -105 126 0
202 43 250 140 28 56 28 59 32 285 l3 227 -70 0 -70 0 -3 -207 c-4 -187 -6
-212 -25 -248 -51 -99 -180 -98 -230 1 -16 34 -19 66 -22 247 l-3 207 -70 0
-69 0 0 -200z"/>
<path d="M1316 1711 c-4 -5 -2 -12 3 -15 5 -4 12 -2 15 3 4 5 2 12 -3 15 -5 4
-12 2 -15 -3z"/>
<path d="M1424 1706 c-10 -8 -17 -16 -14 -19 3 -2 14 4 24 14 23 22 18 25 -10
5z"/>
<path d="M143 1697 c0 -7 11 -13 23 -13 20 0 25 11 6 11 -4 0 -12 3 -18 7 -6
4 -11 1 -11 -5z"/>
<path d="M95 1686 c-17 -20 -14 -32 5 -32 10 0 17 3 14 7 -2 4 0 9 5 11 5 1 4
8 -3 14 -8 8 -14 8 -21 0z"/>
<path d="M1473 1690 c-34 -14 -28 -21 7 -9 17 6 30 13 30 15 0 6 -12 4 -37 -6z"/>
<path d="M1370 1678 c0 -6 3 -8 7 -5 3 4 13 1 22 -6 14 -11 14 -10 2 6 -15 20
-31 22 -31 5z"/>
<path d="M203 1673 c4 -3 1 -13 -6 -22 -11 -14 -10 -14 5 -2 16 12 16 31 1 31
-4 0 -3 -3 0 -7z"/>
<path d="M1420 1660 c0 -5 5 -10 11 -10 5 0 7 5 4 10 -3 6 -8 10 -11 10 -2 0
-4 -4 -4 -10z"/>
<path d="M259 1628 c-1 -2 -3 -13 -4 -26 -2 -21 -1 -22 16 -6 24 21 25 31 2
13 -15 -12 -16 -12 -10 4 5 13 1 26 -4 15z"/>
<path d="M717 1551 l-138 -79 33 -20 c18 -11 207 -117 421 -237 l387 -217 0
-177 0 -177 -182 -99 c-99 -55 -227 -125 -282 -155 l-101 -56 -280 157 -279
157 -60 -34 c-34 -19 -96 -53 -138 -77 -43 -23 -78 -45 -78 -48 0 -3 125 -76
278 -164 152 -87 339 -193 415 -237 l138 -79 424 238 424 238 3 336 3 336
-422 236 c-231 131 -423 237 -425 236 -1 0 -65 -35 -141 -78z"/>
<path d="M284 1445 c0 -71 1 -99 3 -62 2 37 2 96 0 130 -2 34 -3 4 -3 -68z"/>
<path d="M204 1298 c-4 -7 -4 -10 1 -6 4 4 15 2 24 -5 14 -11 14 -10 2 6 -16
20 -18 21 -27 5z"/>
<path d="M170 1275 c0 -8 4 -15 10 -15 5 0 7 7 4 15 -4 8 -8 15 -10 15 -2 0
-4 -7 -4 -15z"/>
<path d="M68 1233 c6 -2 18 -2 25 0 6 3 1 5 -13 5 -14 0 -19 -2 -12 -5z"/>
<path d="M139 1223 c-13 -16 -12 -17 4 -4 9 7 17 15 17 17 0 8 -8 3 -21 -13z"/>
<path d="M25 1211 c3 -5 0 -11 -7 -13 -12 -4 -3 -28 11 -28 16 0 19 39 4 44
-8 3 -12 2 -8 -3z"/>
<path d="M8790 1209 c0 -4 9 -27 20 -53 l21 -46 74 0 c41 0 75 3 75 8 -1 4
-11 27 -23 52 l-22 45 -73 0 c-39 0 -72 -3 -72 -6z"/>
<path d="M60 1190 c0 -4 7 -7 15 -6 23 3 26 12 5 13 -11 1 -20 -2 -20 -7z"/>
<path d="M2882 750 c-11 -17 -10 -20 7 -20 27 0 46 26 25 34 -8 3 -16 6 -17 6
-1 0 -8 -9 -15 -20z"/>
<path d="M3064 691 c-43 -26 -61 -79 -45 -132 13 -44 42 -67 93 -76 51 -8 121
32 89 51 -5 3 -22 -1 -39 -9 -54 -27 -111 10 -112 73 0 60 63 97 118 68 39
-20 56 -1 22 26 -29 23 -87 23 -126 -1z"/>
<path d="M3324 701 c-91 -39 -81 -183 14 -212 86 -25 158 33 149 120 -6 58
-40 92 -98 97 -24 2 -54 0 -65 -5z m102 -45 c58 -49 25 -140 -51 -140 -76 0
-109 91 -51 140 15 13 38 24 51 24 13 0 36 -11 51 -24z"/>
<path d="M3894 700 c-61 -24 -85 -121 -43 -173 47 -60 151 -56 190 7 60 98
-39 210 -147 166z m93 -35 c67 -47 30 -155 -53 -155 -26 0 -74 56 -74 85 0 33
50 85 82 85 13 0 33 -7 45 -15z"/>
<path d="M4592 694 c-15 -10 -22 -25 -22 -49 0 -28 6 -37 30 -50 16 -8 36 -15
44 -15 21 0 46 -28 40 -45 -9 -23 -42 -28 -76 -11 -39 20 -66 4 -34 -20 30
-22 81 -28 113 -12 24 11 28 19 28 53 0 33 -4 41 -27 52 -16 7 -40 19 -55 26
-54 25 -19 71 36 50 23 -8 33 -8 41 1 7 10 3 16 -16 24 -35 16 -75 15 -102 -4z"/>
<path d="M6534 700 c-67 -27 -86 -125 -35 -182 26 -29 35 -33 80 -33 33 0 56
6 67 17 26 26 9 39 -31 22 -40 -16 -75 -7 -99 28 -21 30 -20 60 4 91 26 33 64
42 100 23 24 -12 31 -12 40 -1 24 29 -74 56 -126 35z"/>
<path d="M6764 691 c-37 -22 -59 -77 -49 -120 3 -15 20 -41 36 -57 25 -24 39
-29 80 -29 44 0 54 4 80 33 23 26 29 41 29 80 0 40 -5 53 -29 76 -39 38 -103
45 -147 17z m100 -22 c55 -25 58 -102 4 -142 -76 -56 -161 61 -93 128 26 27
51 31 89 14z"/>
<path d="M7312 694 c-15 -11 -22 -25 -22 -50 0 -36 0 -36 93 -73 31 -12 33
-37 5 -55 -13 -8 -26 -6 -54 7 -30 15 -39 16 -45 5 -19 -29 72 -60 117 -39 64
29 49 98 -28 123 -35 12 -43 19 -43 39 0 20 5 24 30 23 17 0 37 -4 46 -8 11
-5 19 -2 23 9 12 32 -82 47 -122 19z"/>
<path d="M8270 688 c-83 -56 -56 -185 43 -203 46 -9 113 20 96 41 -9 11 -16
11 -40 -1 -40 -21 -92 0 -107 43 -24 69 54 136 114 97 19 -12 29 -14 37 -6 18
18 -15 43 -64 48 -35 4 -51 0 -79 -19z"/>
<path d="M8864 700 c-60 -24 -85 -121 -44 -172 61 -78 188 -49 205 46 18 91
-73 162 -161 126z m101 -45 c25 -24 32 -65 19 -100 -7 -18 -55 -45 -79 -45
-26 0 -75 55 -75 85 0 35 50 85 85 85 14 0 37 -11 50 -25z"/>
<path d="M2800 590 l0 -110 80 0 c73 0 80 2 80 20 0 18 -7 20 -65 20 l-65 0 0
30 c0 30 1 30 55 30 42 0 55 3 55 15 0 12 -13 15 -55 15 -54 0 -55 0 -55 30
l0 30 60 0 c47 0 60 3 60 15 0 12 -15 15 -75 15 l-75 0 0 -110z"/>
<path d="M3560 590 c0 -90 3 -110 15 -110 11 0 15 18 17 83 l3 82 65 -82 c90
-115 100 -113 100 27 0 91 -3 110 -15 110 -12 0 -15 -15 -15 -75 0 -41 -4 -75
-9 -75 -4 0 -34 34 -66 75 -35 47 -64 75 -76 75 -17 0 -19 -9 -19 -110z"/>
<path d="M4130 590 c0 -90 3 -110 15 -110 11 0 15 19 17 88 l3 87 40 -77 c22
-43 43 -78 47 -78 4 0 26 35 47 78 l40 77 1 -87 c0 -81 2 -88 20 -88 19 0 20
7 20 110 l0 110 -30 0 c-27 0 -33 -7 -64 -67 l-34 -68 -33 68 c-29 59 -37 67
-61 67 l-28 0 0 -110z"/>
<path d="M4460 590 c0 -91 3 -110 15 -110 12 0 15 19 15 110 0 91 -3 110 -15
110 -12 0 -15 -19 -15 -110z"/>
<path d="M4770 685 c0 -10 11 -15 35 -15 l35 0 0 -95 c0 -78 3 -95 15 -95 12
0 15 17 15 95 l0 95 35 0 c24 0 35 5 35 15 0 12 -16 15 -85 15 -69 0 -85 -3
-85 -15z"/>
<path d="M5000 590 l0 -110 80 0 c73 0 80 2 80 20 0 18 -7 20 -65 20 l-65 0 0
30 c0 30 1 30 55 30 42 0 55 3 55 15 0 12 -13 15 -55 15 -54 0 -55 0 -55 30
l0 30 60 0 c47 0 60 3 60 15 0 12 -15 15 -75 15 l-75 0 0 -110z"/>
<path d="M5330 589 l0 -112 68 7 c82 9 108 24 123 75 15 49 6 86 -28 117 -22
20 -36 24 -94 24 l-69 0 0 -111z m140 61 c12 -12 20 -33 20 -55 0 -50 -28 -75
-85 -75 l-45 0 0 75 0 75 45 0 c32 0 51 -6 65 -20z"/>
<path d="M5600 590 l0 -110 75 0 c68 0 75 2 75 20 0 18 -7 20 -60 20 l-60 0 0
30 c0 30 1 30 55 30 42 0 55 3 55 15 0 12 -13 15 -55 15 -54 0 -55 0 -55 30
l0 30 60 0 c47 0 60 3 60 15 0 12 -15 15 -75 15 l-75 0 0 -110z"/>
<path d="M5930 590 l0 -110 65 0 c58 0 65 2 65 20 0 17 -7 20 -50 20 l-50 0 0
90 c0 73 -3 90 -15 90 -12 0 -15 -19 -15 -110z"/>
<path d="M6154 623 c-66 -143 -65 -143 -45 -143 11 0 24 12 31 30 12 28 16 30
66 30 49 0 55 -2 69 -30 9 -17 24 -30 34 -30 17 0 14 12 -29 108 -63 141 -76
145 -126 35z m79 -13 l15 -40 -39 0 c-21 0 -39 2 -39 5 0 11 34 75 40 75 4 0
14 -18 23 -40z"/>
<path d="M7010 590 c0 -103 1 -110 20 -110 17 0 19 8 22 81 l3 81 60 -81 c85
-113 95 -110 95 29 0 90 -3 110 -15 110 -11 0 -15 -18 -17 -80 l-3 -80 -63 80
c-41 52 -69 80 -82 80 -19 0 -20 -7 -20 -110z"/>
<path d="M7490 685 c0 -10 11 -15 35 -15 l35 0 0 -95 c0 -78 3 -95 15 -95 12
0 15 17 15 95 l0 95 35 0 c24 0 35 5 35 15 0 12 -16 15 -85 15 -69 0 -85 -3
-85 -15z"/>
<path d="M7720 590 c0 -103 1 -110 20 -110 17 0 20 7 20 40 0 36 3 40 25 40
18 0 32 -11 51 -40 19 -28 34 -40 50 -40 l24 0 -29 40 -29 41 24 24 c28 28 31
61 8 93 -13 19 -24 22 -90 22 l-74 0 0 -110z m138 52 c5 -34 -15 -52 -59 -52
-39 0 -39 0 -39 41 l0 40 48 -3 c40 -3 47 -6 50 -26z"/>
<path d="M7970 621 c0 -64 4 -83 20 -104 27 -34 78 -44 118 -23 38 20 42 31
42 127 0 64 -3 79 -15 79 -12 0 -15 -15 -15 -75 0 -62 -4 -79 -20 -95 -26 -26
-46 -25 -75 5 -22 21 -25 33 -25 95 0 56 -3 70 -15 70 -12 0 -15 -15 -15 -79z"/>
<path d="M8470 685 c0 -10 10 -15 30 -15 l30 0 0 -95 c0 -88 1 -95 20 -95 19
0 20 7 20 95 l0 95 30 0 c20 0 30 5 30 15 0 12 -16 15 -80 15 -64 0 -80 -3
-80 -15z"/>
<path d="M8700 590 c0 -91 3 -110 15 -110 12 0 15 19 15 110 0 91 -3 110 -15
110 -12 0 -15 -19 -15 -110z"/>
<path d="M9100 590 c0 -90 3 -110 15 -110 11 0 15 18 17 82 l3 83 64 -83 c39
-51 71 -82 82 -82 17 0 19 9 19 110 0 103 -1 110 -20 110 -17 0 -19 -8 -22
-77 l-3 -78 -60 78 c-85 110 -95 106 -95 -33z"/>
</g>
</svg>
